<?xml version="1.0" encoding="utf-8"?><svg version="1.1" id="Layer_1" xmlns="http://www.w3.org/2000/svg" xmlns:xlink="http://www.w3.org/1999/xlink" x="0px" y="0px" viewBox="0 0 122.67 122.88" style="enable-background:new 0 0 122.67 122.88" xml:space="preserve"><style type="text/css">.st0{fill-rule:evenodd;clip-rule:evenodd;}</style><g><path class="st0" d="M0.36,15.78c0.3,6.98,0.84,14.42,1.74,21.99l21.5,1.25L0.36,15.78L0.36,15.78z M120.96,113.47l-11.6-10.88 c12.55-18.33,15.86-36.43,11.45-54.03c-3.26-9.99-9.58-17.97-17.83-24.33l-1.06,70.41l-5.18-5.09l1.51-68.67 c-7.1-4.6-15.3-8.22-24.05-11.05l4.26,61.34l-5.18-5.09L69.34,8.35c-8.87-2.54-18.18-4.34-27.38-5.59l2.09,34.01l-5.18-5.09 L37.16,2.16C23.82,0.6,10.93,0.14,0.18,0.17L0,0v8.84c38.3,38.3,75.14,75.14,112.8,112.8 C119.93,126.02,124.49,117.75,120.96,113.47L120.96,113.47z M2.71,42.57c1.27,9.21,3.1,18.52,5.67,27.39l49.54,3.38L28.75,44.17 L2.71,42.57L2.71,42.57z M9.87,74.82c2.87,8.74,6.53,16.92,11.18,23.99l61-1.34L63.09,78.51L9.87,74.82L9.87,74.82z M24.45,103.54 c6.3,8.04,14.18,14.18,23.99,17.39c16.01,4.01,32.29,1.72,48.9-8.17L87.18,102.6L24.45,103.54L24.45,103.54z"/></g></svg>